<svg width="21" height="21" viewBox="0 0 21 21" fill="none" xmlns="http://www.w3.org/2000/svg">
<path d="M9.04165 12.375L6.80206 10.1355C6.61109 9.94448 6.36804 9.849 6.0729 9.849C5.77776 9.849 5.5347 9.94448 5.34373 10.1355C5.15276 10.3264 5.05727 10.5695 5.05727 10.8646C5.05727 11.1598 5.15276 11.4028 5.34373 11.5938L8.31248 14.5625C8.52081 14.7709 8.76387 14.875 9.04165 14.875C9.31943 14.875 9.56248 14.7709 9.77081 14.5625L15.6562 8.67712C15.8472 8.48615 15.9427 8.2431 15.9427 7.94796C15.9427 7.65282 15.8472 7.40976 15.6562 7.21879C15.4653 7.02782 15.2222 6.93233 14.9271 6.93233C14.6319 6.93233 14.3889 7.02782 14.1979 7.21879L9.04165 12.375ZM10.5 20.9167C9.05901 20.9167 7.70484 20.6431 6.43748 20.0959C5.17012 19.5487 4.06769 18.8066 3.13019 17.8698C2.19269 16.933 1.45068 15.8306 0.904148 14.5625C0.35762 13.2945 0.0840088 11.9403 0.0833143 10.5C0.0826199 9.05976 0.356231 7.7056 0.904148 6.43754C1.45206 5.16949 2.19408 4.06705 3.13019 3.13025C4.0663 2.19344 5.16873 1.45143 6.43748 0.904207C7.70623 0.356985 9.0604 0.083374 10.5 0.083374C11.9396 0.083374 13.2937 0.356985 14.5625 0.904207C15.8312 1.45143 16.9337 2.19344 17.8698 3.13025C18.8059 4.06705 19.5482 5.16949 20.0969 6.43754C20.6455 7.7056 20.9187 9.05976 20.9166 10.5C20.9146 11.9403 20.641 13.2945 20.0958 14.5625C19.5507 15.8306 18.8087 16.933 17.8698 17.8698C16.9309 18.8066 15.8285 19.549 14.5625 20.0969C13.2965 20.6448 11.9423 20.9181 10.5 20.9167Z" fill="white"/>
</svg>
