<svg width="512" height="512" viewBox="0 0 512 512" fill="none" xmlns="http://www.w3.org/2000/svg">
<path d="M366.147 257.99L451 342.843M253.01 144.853L168.157 60M253.01 31.716C237.389 16.095 212.062 16.095 196.441 31.716L83.946 144.498C10.083 218.361 -1.878 338.322 64.638 418.864C140.941 511.257 278.02 516.109 360.708 433.421L479.284 314.558C494.905 298.937 494.905 273.61 479.284 257.99L451 229.706C435.379 214.085 410.052 214.085 394.431 229.706L275.856 348.569C244.614 379.811 193.961 379.811 162.719 348.569C131.477 317.327 131.477 266.674 162.719 235.432L281.295 116.569C296.916 100.948 296.916 75.621 281.295 60L253.01 31.716Z" stroke="black" stroke-width="40" stroke-miterlimit="10" stroke-linecap="round" stroke-linejoin="round"/>
</svg>
