<svg width="24" height="24" viewBox="0 0 24 24" fill="none" xmlns="http://www.w3.org/2000/svg">
<path fill-rule="evenodd" clip-rule="evenodd" d="M12 3C9.79086 3 8 4.79086 8 7C8 9.20914 9.79086 11 12 11C14.2091 11 16 9.20914 16 7C16 4.79086 14.2091 3 12 3ZM12 5C13.1046 5 14 5.89543 14 7C14 8.10457 13.1046 9 12 9C10.8954 9 10 8.10457 10 7C10 5.89543 10.8954 5 12 5ZM19 17.3333C19 14.9622 17.234 13 15 13H9C6.766 13 5 14.9622 5 17.3333V19C5 19.5523 5.44772 20 6 20H18C18.5523 20 19 19.5523 19 19V17.3333ZM15 15L15.1399 15.0057C16.158 15.0895 17 16.0795 17 17.3333V18H7V17.3333C7 16.0226 7.9203 15 9 15H15Z" fill="#B5D6F4"/>
</svg>
