<svg width="19" height="19" viewBox="0 0 19 19" fill="none" xmlns="http://www.w3.org/2000/svg">
<path fill-rule="evenodd" clip-rule="evenodd" d="M17.6666 13.4334V15.9334C17.6685 16.4026 17.4725 16.851 17.1267 17.1682C16.7809 17.4855 16.3174 17.6423 15.85 17.6C13.2857 17.3214 10.8225 16.4451 8.6583 15.0417C6.64483 13.7622 4.93775 12.0552 3.6583 10.0417C2.24995 7.86769 1.37351 5.39252 1.09997 2.81669C1.05786 2.35075 1.21353 1.88856 1.52894 1.54304C1.84435 1.19751 2.29047 1.00046 2.7583 1.00002H5.2583C6.09486 0.991787 6.80789 1.60499 6.92497 2.43335C7.03049 3.23341 7.22618 4.01896 7.5083 4.77502C7.73725 5.38408 7.59082 6.07069 7.1333 6.53335L6.07497 7.59169C7.26127 9.67798 8.98868 11.4054 11.075 12.5917L12.1333 11.5334C12.596 11.0758 13.2826 10.9294 13.8916 11.1584C14.6477 11.4405 15.4332 11.6362 16.2333 11.7417C17.0713 11.8599 17.6876 12.5873 17.6666 13.4334Z" stroke="#59D150" stroke-width="2" stroke-linecap="round" stroke-linejoin="round"/>
</svg>
