<svg width="24" height="24" viewBox="0 0 24 24" fill="none" xmlns="http://www.w3.org/2000/svg">
<path d="M14.1915 6.01851C13.6494 5.91275 13.1243 6.26644 13.0185 6.80851C12.9127 7.35057 13.2664 7.87573 13.8085 7.98149L14.1915 6.01851ZM16.0185 10.1915C16.1243 10.7336 16.6494 11.0873 17.1915 10.9815C17.7336 10.8757 18.0873 10.3506 17.9815 9.80851L16.0185 10.1915ZM14.1105 2.00613C13.5617 1.94507 13.0672 2.34055 13.0061 2.88945C12.9451 3.43835 13.3406 3.93282 13.8895 3.99387L14.1105 2.00613ZM20.0062 10.1115C20.0678 10.6604 20.5627 11.0554 21.1115 10.9938C21.6604 10.9322 22.0554 10.4373 21.9938 9.88847L20.0062 10.1115ZM19.9995 19.2869H18.9995L18.9995 19.291L19.9995 19.2869ZM18.1361 20.9931L18.0283 21.9872C18.0343 21.9879 18.0403 21.9885 18.0463 21.989L18.1361 20.9931ZM10.7596 18.3742L11.3029 17.5346L11.2951 17.5297L10.7596 18.3742ZM5.63104 13.2558L6.4746 12.7187L6.46983 12.7113L5.63104 13.2558ZM3.00694 5.85976L2.01102 5.94994C2.01149 5.95515 2.012 5.96036 2.01256 5.96556L3.00694 5.85976ZM4.70791 4.00008V3.00008L4.70697 3.00008L4.70791 4.00008ZM7.27217 4.00008V5.00013L7.28199 5.00004L7.27217 4.00008ZM8.98168 5.46735L9.9731 5.33633L9.9718 5.32713L8.98168 5.46735ZM9.58001 7.86445L8.64333 8.21467L8.64419 8.21693L9.58001 7.86445ZM9.19537 9.66441L9.90178 10.3722L9.90572 10.3683L9.19537 9.66441ZM8.10983 10.7478L7.40342 10.04C7.08431 10.3585 7.01777 10.8511 7.24096 11.2428L8.10983 10.7478ZM13.2384 15.8662L12.7448 16.7359C13.1357 16.9577 13.6266 16.8915 13.9448 16.574L13.2384 15.8662ZM14.3239 14.7828L13.6215 14.071L13.6175 14.075L14.3239 14.7828ZM16.1274 14.3989L15.7762 15.3352L15.7784 15.336L16.1274 14.3989ZM18.5293 14.996L18.6687 14.0058L18.6598 14.0046L18.5293 14.996ZM13.8085 7.98149C14.9264 8.19959 15.8004 9.07363 16.0185 10.1915L17.9815 9.80851C17.6075 7.89145 16.1086 6.39253 14.1915 6.01851L13.8085 7.98149ZM13.8895 3.99387C17.1043 4.35147 19.6448 6.89081 20.0062 10.1115L21.9938 9.88847C21.5283 5.74075 18.2559 2.46722 14.1105 2.00613L13.8895 3.99387ZM18.9995 16.7278V19.2869H20.9995V16.7278H18.9995ZM18.9995 19.291C19.0003 19.4891 18.9174 19.6789 18.7703 19.8135L20.121 21.2886C20.6833 20.7737 21.0026 20.0455 20.9995 19.2829L18.9995 19.291ZM18.7703 19.8135C18.6232 19.9482 18.4256 20.0151 18.2259 19.9971L18.0463 21.989C18.8054 22.0575 19.5587 21.8034 20.121 21.2886L18.7703 19.8135ZM18.2439 19.9989C15.7689 19.7305 13.3915 18.8864 11.3029 17.5347L10.2162 19.2137C12.5672 20.7353 15.2429 21.6852 18.0283 21.9872L18.2439 19.9989ZM11.2951 17.5297C9.35377 16.2985 7.70799 14.6559 6.47457 12.7187L4.78751 13.7929C6.17876 15.978 8.0349 17.8304 10.224 19.2187L11.2951 17.5297ZM6.46983 12.7113C5.11087 10.6177 4.26524 8.23425 4.00133 5.75395L2.01256 5.96556C2.30978 8.75889 3.2621 11.4429 4.79225 13.8003L6.46983 12.7113ZM4.00287 5.76958C3.98506 5.57286 4.05085 5.37736 4.18484 5.23087L2.70905 3.88104C2.196 4.44196 1.94245 5.19272 2.01102 5.94994L4.00287 5.76958ZM4.18484 5.23087C4.3189 5.0843 4.50899 5.00027 4.70885 5.00008L4.70697 3.00008C3.94709 3.0008 3.22202 3.3202 2.70905 3.88104L4.18484 5.23087ZM4.70791 5.00008H7.27217V3.00008H4.70791V5.00008ZM7.28199 5.00004C7.63974 4.99652 7.94205 5.25798 7.99156 5.60757L9.9718 5.32713C9.78112 3.98077 8.62071 2.98679 7.26235 3.00013L7.28199 5.00004ZM7.9903 5.59836C8.10843 6.49227 8.32751 7.36996 8.64334 8.21467L10.5167 7.51424C10.2538 6.81103 10.0714 6.08042 9.97306 5.33634L7.9903 5.59836ZM8.64419 8.21693C8.74107 8.47415 8.67935 8.76444 8.48501 8.96057L9.90572 10.3683C10.6499 9.61716 10.8886 8.50172 10.5158 7.51198L8.64419 8.21693ZM8.48896 8.9566L7.40342 10.04L8.81623 11.4556L9.90177 10.3722L8.48896 8.9566ZM7.24096 11.2428C8.54695 13.5351 10.4485 15.4328 12.7448 16.7359L13.7319 14.9965C11.7484 13.8708 10.1063 12.2319 8.9787 10.2528L7.24096 11.2428ZM13.9448 16.574L15.0303 15.4906L13.6175 14.075L12.532 15.1584L13.9448 16.574ZM15.0263 15.4945C15.2232 15.3003 15.5161 15.2376 15.7762 15.3352L16.4787 13.4626C15.4893 13.0915 14.3737 13.3286 13.6215 14.071L15.0263 15.4945ZM15.7784 15.336C16.6245 15.6511 17.5035 15.8697 18.3988 15.9875L18.6598 14.0046C17.9138 13.9064 17.1814 13.7243 16.4764 13.4618L15.7784 15.336ZM18.3899 15.9863C18.748 16.0367 19.0086 16.3461 18.9998 16.7029L20.9992 16.7526C21.0333 15.3773 20.0296 14.1974 18.6687 14.0058L18.3899 15.9863Z" fill="#B5D6F4"/>
</svg>
