<svg width="18" height="18" viewBox="0 0 18 18" fill="none" xmlns="http://www.w3.org/2000/svg">
<path fill-rule="evenodd" clip-rule="evenodd" d="M10 1C10 0.447715 9.55229 0 9 0C8.44771 0 8 0.447715 8 1V6.58579L4.75736 3.34315C4.36684 2.95262 3.73367 2.95262 3.34315 3.34315C2.95262 3.73367 2.95262 4.36683 3.34315 4.75736L6.58579 8H1C0.447715 8 0 8.44771 0 9C0 9.55229 0.447715 10 1 10H6.58579L3.34315 13.2426C2.95262 13.6332 2.95262 14.2663 3.34315 14.6569C3.73367 15.0474 4.36683 15.0474 4.75736 14.6569L8 11.4142V17C8 17.5523 8.44771 18 9 18C9.55229 18 10 17.5523 10 17V11.4142L13.2426 14.6569C13.6332 15.0474 14.2663 15.0474 14.6569 14.6569C15.0474 14.2663 15.0474 13.6332 14.6569 13.2426L11.4142 10H17C17.5523 10 18 9.55229 18 9C18 8.44771 17.5523 8 17 8H11.4142L14.6569 4.75736C15.0474 4.36684 15.0474 3.73367 14.6569 3.34315C14.2663 2.95262 13.6332 2.95262 13.2426 3.34315L10 6.58579V1Z" fill="#F70031"/>
</svg>
