<svg width="19" height="15" viewBox="0 0 19 15" fill="none" xmlns="http://www.w3.org/2000/svg">
<path fill-rule="evenodd" clip-rule="evenodd" d="M15.8333 0H2.5C1.1279 0 0.00784564 1.11527 4.10362e-05 2.48559C1.36911e-05 2.49039 0 2.49519 0 2.5V2.51021M15.8333 0C17.2055 0 18.3256 1.11536 18.3333 2.48575ZM16.6667 4.10055L9.64455 9.01603C9.3895 9.19456 9.05941 9.2144 8.78768 9.07554L8.68878 9.01603L1.66667 4.10055V12.5C1.66667 12.9564 2.04357 13.3333 2.5 13.3333H15.8333C16.2898 13.3333 16.6667 12.9564 16.6667 12.5V4.10055ZM0 2.51021V12.5C0 13.8769 1.1231 15 2.5 15H15.8333C17.2102 15 18.3333 13.8769 18.3333 12.5V2.51004M16.5778 2.12825L9.16633 7.31533L1.75549 2.12827C1.89331 1.85576 2.17671 1.66667 2.5 1.66667H15.8333C16.1566 1.66667 16.44 1.85575 16.5778 2.12825Z" fill="#FA9501"/>
</svg>
