<svg width="24" height="24" viewBox="0 0 24 24" fill="none" xmlns="http://www.w3.org/2000/svg">
<path fill-rule="evenodd" clip-rule="evenodd" d="M14.4365 2.30143C9.99037 1.18434 5.35403 3.23328 3.18686 7.27301C1.01968 11.3127 1.87667 16.3087 5.26628 19.3952C8.65588 22.4817 13.71 22.8684 17.5297 20.3334C17.9898 20.028 18.1153 19.4074 17.8099 18.9472C17.5045 18.487 16.8839 18.3616 16.4237 18.667C13.368 20.695 9.32457 20.3857 6.61283 17.9164C3.9011 15.4471 3.21549 11.4503 4.94926 8.21848C6.68304 4.98664 10.3922 3.34745 13.9492 4.24114C17.5061 5.13483 20 8.33253 20.0003 12.0001C20.0003 13.8252 19.4254 14.75 18.3753 14.75C17.3252 14.75 16.7503 13.8252 16.7503 12V8.24997L16.7436 8.13335C16.6858 7.63601 16.2632 7.24997 15.7503 7.24997C15.2381 7.24997 14.8159 7.63505 14.7573 8.13148C13.9799 7.5765 13.0283 7.24997 12.0003 7.24997C9.37697 7.24997 7.25032 9.37662 7.25032 12C7.25032 14.6233 9.37697 16.75 12.0003 16.75C13.3916 16.75 14.6432 16.1518 15.512 15.1986C16.1134 16.1725 17.0695 16.75 18.3753 16.75C20.7815 16.75 22.0003 14.7894 22.0003 12C21.9999 7.41556 18.8826 3.41852 14.4365 2.30143ZM14.7503 12C14.7503 10.4812 13.5191 9.24997 12.0003 9.24997C10.4815 9.24997 9.25032 10.4812 9.25032 12C9.25032 13.5188 10.4815 14.75 12.0003 14.75C13.5191 14.75 14.7503 13.5188 14.7503 12Z" fill="#3F8CFF"/>
</svg>
