<svg width="24" height="24" viewBox="0 0 24 24" fill="none" xmlns="http://www.w3.org/2000/svg">
<path fill-rule="evenodd" clip-rule="evenodd" d="M22 6C22 3.79086 20.2091 2 18 2H6C3.79086 2 2 3.79086 2 6V18C2 20.2091 3.79086 22 6 22H18C20.2091 22 22 20.2091 22 18V6ZM6 4H18L18.1493 4.00549C19.1841 4.08183 20 4.94564 20 6V18L19.9945 18.1493C19.9182 19.1841 19.0544 20 18 20H6L5.85074 19.9945C4.81588 19.9182 4 19.0544 4 18V6L4.00549 5.85074C4.08183 4.81588 4.94564 4 6 4Z" fill="#0A1629"/>
<path fill-rule="evenodd" clip-rule="evenodd" d="M18.3639 7.87846C18.7266 8.24109 18.7525 8.81293 18.4416 9.20545L18.3639 9.29267L11.2929 16.3637C10.9302 16.7264 10.3584 16.7523 9.96587 16.4414L9.87865 16.3637L5.63601 12.1211C5.24549 11.7306 5.24549 11.0974 5.63601 10.7069C5.99864 10.3443 6.57048 10.3184 6.963 10.6292L7.05022 10.7069L10.586 14.2416L16.9497 7.87846C17.3123 7.51583 17.8842 7.48993 18.2767 7.80075L18.3639 7.87846Z" fill="#3F8CFF"/>
</svg>
