<svg width="21" height="21" viewBox="0 0 21 21" fill="none" xmlns="http://www.w3.org/2000/svg">
<path d="M9.04159 12.3749L6.802 10.1353C6.61103 9.94436 6.36798 9.84888 6.07284 9.84888C5.7777 9.84888 5.53464 9.94436 5.34367 10.1353C5.1527 10.3263 5.05721 10.5694 5.05721 10.8645C5.05721 11.1596 5.1527 11.4027 5.34367 11.5937L8.31242 14.5624C8.52075 14.7708 8.76381 14.8749 9.04159 14.8749C9.31936 14.8749 9.56242 14.7708 9.77075 14.5624L15.6562 8.677C15.8471 8.48603 15.9426 8.24297 15.9426 7.94783C15.9426 7.6527 15.8471 7.40964 15.6562 7.21867C15.4652 7.0277 15.2221 6.93221 14.927 6.93221C14.6319 6.93221 14.3888 7.0277 14.1978 7.21867L9.04159 12.3749ZM10.4999 20.9166C9.05895 20.9166 7.70478 20.643 6.43742 20.0958C5.17006 19.5485 4.06763 18.8065 3.13013 17.8697C2.19263 16.9329 1.45061 15.8305 0.904087 14.5624C0.357559 13.2944 0.0839477 11.9402 0.0832533 10.4999C0.0825588 9.05964 0.35617 7.70547 0.904087 6.43742C1.452 5.16936 2.19402 4.06693 3.13013 3.13013C4.06624 2.19332 5.16867 1.45131 6.43742 0.904085C7.70617 0.356863 9.06034 0.083252 10.4999 0.083252C11.9395 0.083252 13.2937 0.356863 14.5624 0.904085C15.8312 1.45131 16.9336 2.19332 17.8697 3.13013C18.8058 4.06693 19.5482 5.16936 20.0968 6.43742C20.6454 7.70547 20.9187 9.05964 20.9166 10.4999C20.9145 11.9402 20.6409 13.2944 20.0958 14.5624C19.5506 15.8305 18.8086 16.9329 17.8697 17.8697C16.9308 18.8065 15.8284 19.5489 14.5624 20.0968C13.2964 20.6447 11.9423 20.918 10.4999 20.9166Z" fill="white"/>
</svg>
