<svg width="24" height="24" viewBox="0 0 24 24" fill="none" xmlns="http://www.w3.org/2000/svg">
<path fill-rule="evenodd" clip-rule="evenodd" d="M16.9456 7.29971C15.864 4.46595 13.2945 2.41687 10.2321 2.00855C6.79568 1.66436 3.50253 3.47237 1.91219 6.53946C0.540464 9.39612 0.779419 13.7656 2.46233 16.346C2.76403 16.8086 3.38361 16.9391 3.84621 16.6374C4.30881 16.3357 4.43925 15.7161 4.13755 15.2535C2.84093 13.2654 2.64259 9.6385 3.70147 7.43251C4.90304 5.11622 7.41629 3.7364 10.0004 3.99481C12.5852 4.33999 14.7272 6.26044 15.3261 8.82701C15.4317 9.27959 15.8352 9.59978 16.2999 9.59978H17.4999L17.681 9.60532C19.1256 9.69364 20.4746 10.8288 20.9421 12.3871C21.1542 13.3923 20.953 14.4384 20.3362 15.4959C20.0579 15.973 20.219 16.5853 20.6961 16.8636C21.1731 17.1418 21.7854 16.9807 22.0637 16.5036C22.9214 15.0333 23.2193 13.4843 22.8777 11.8902L22.8005 11.6489C21.9836 9.25936 19.8499 7.59978 17.4999 7.59978L17.0519 7.59878L16.9456 7.29971ZM12.9932 12.8832C12.9354 12.3858 12.5128 11.9998 11.9999 11.9998C11.4477 11.9998 10.9999 12.4475 10.9999 12.9998V19.5848L8.70705 17.2927L8.61284 17.2095C8.22055 16.9045 7.65332 16.9322 7.29284 17.2927C6.90231 17.6832 6.90231 18.3164 7.29284 18.7069L11.2928 22.7069L11.387 22.7901C11.7793 23.0951 12.3466 23.0674 12.707 22.7069L16.707 18.7069L16.7902 18.6127C17.0953 18.2204 17.0675 17.6532 16.707 17.2927L16.6128 17.2095C16.2206 16.9045 15.6533 16.9322 15.2928 17.2927L12.9999 19.5848V12.9998L12.9932 12.8832Z" fill="#0A1629"/>
</svg>
