<svg width="24" height="24" viewBox="0 0 24 24" fill="none" xmlns="http://www.w3.org/2000/svg">
<path fill-rule="evenodd" clip-rule="evenodd" d="M5.66667 5H18.3333C19.8061 5 21 6.19391 21 7.66667V16.3333C21 17.8061 19.8061 19 18.3333 19H5.66667C4.19391 19 3 17.8061 3 16.3333V7.66667C3 6.19391 4.19391 5 5.66667 5ZM18.3333 7H5.66667C5.29848 7 5 7.29848 5 7.66667V16.3333C5 16.7015 5.29848 17 5.66667 17H18.3333C18.7015 17 19 16.7015 19 16.3333V7.66667C19 7.29848 18.7015 7 18.3333 7ZM16 9C16.5523 9 17 9.44772 17 10C17 10.5128 16.614 10.9355 16.1166 10.9933L16 11H8C7.44772 11 7 10.5523 7 10C7 9.48716 7.38604 9.06449 7.88338 9.00673L8 9H16ZM17 14C17 13.4477 16.5523 13 16 13H8L7.88338 13.0067C7.38604 13.0645 7 13.4872 7 14C7 14.5523 7.44772 15 8 15H16L16.1166 14.9933C16.614 14.9355 17 14.5128 17 14Z" fill="#B5D6F4"/>
</svg>
