<svg width="24" height="24" viewBox="0 0 24 24" fill="none" xmlns="http://www.w3.org/2000/svg">
<path fill-rule="evenodd" clip-rule="evenodd" d="M18.3333 5H5.66667C4.19391 5 3 6.19391 3 7.66667V10V16.3333C3 17.8061 4.19391 19 5.66667 19H18.3333C19.8061 19 21 17.8061 21 16.3333V10V7.66667C21 6.19391 19.8061 5 18.3333 5ZM19 9V7.66667C19 7.29848 18.7015 7 18.3333 7H5.66667C5.29848 7 5 7.29848 5 7.66667V9H19ZM5 11H19V16.3333C19 16.7015 18.7015 17 18.3333 17H5.66667C5.29848 17 5 16.7015 5 16.3333V11Z" fill="#B5D6F4"/>
</svg>
