<svg width="24" height="24" viewBox="0 0 24 24" fill="none" xmlns="http://www.w3.org/2000/svg">
<path fill-rule="evenodd" clip-rule="evenodd" d="M12.8889 3.00003L12.944 3.00155C17.2892 3.2413 20.7588 6.71086 21 11.1112L21 11.553C21.0035 12.8837 20.6925 14.1964 20.0945 15.3804C18.6461 18.2786 15.6848 20.1099 12.4471 20.1111C11.3583 20.114 10.2816 19.9064 9.27546 19.5022L9.00202 19.386L4.31625 20.9487C3.57002 21.1975 2.85844 20.5311 3.02194 19.7901L3.05134 19.6838L4.61302 14.997L4.49788 14.7246C4.13859 13.8303 3.93463 12.8805 3.89574 11.9171L3.88891 11.5552C3.89016 8.31527 5.72148 5.35399 8.61583 3.90745C9.80361 3.3075 11.1163 2.99659 12.4445 3.00003H12.8889ZM12.8435 4.99905L12.4419 5.00002C11.4261 4.9974 10.4242 5.23472 9.51374 5.69456C7.29308 6.8044 5.88987 9.07343 5.8889 11.5582C5.88626 12.5739 6.12357 13.5759 6.5815 14.4825C6.70171 14.7205 6.7219 14.9967 6.63759 15.2496L5.58102 18.419L8.75045 17.3625C8.96124 17.2922 9.18814 17.2945 9.39564 17.3668L9.51753 17.4185C10.4242 17.8765 11.4261 18.1138 12.4441 18.1111C14.9266 18.1102 17.1956 16.707 18.3074 14.4825C18.7653 13.5759 19.0026 12.5739 19 11.5556L19.0015 11.1662C18.8181 7.84214 16.1663 5.18726 12.8435 4.99905ZM12.8435 4.99905L12.847 4.99904L12.8338 4.99851C12.837 4.99869 12.8403 4.99887 12.8435 4.99905Z" fill="#B5D6F4"/>
</svg>
