<svg width="24" height="24" viewBox="0 0 24 24" fill="none" xmlns="http://www.w3.org/2000/svg">
<path fill-rule="evenodd" clip-rule="evenodd" d="M18.0378 5.8H16.5284C16.1115 5.8 15.7736 5.45974 15.7736 5.04C15.7736 4.62026 16.1115 4.28 16.5284 4.28H18.0378V2.76C18.0378 2.34026 18.3757 2 18.7925 2C19.2093 2 19.5472 2.34026 19.5472 2.76V4.28H21.0567C21.4735 4.28 21.8114 4.62026 21.8114 5.04C21.8114 5.45974 21.4735 5.8 21.0567 5.8H19.5472V7.32C19.5472 7.73974 19.2093 8.08 18.7925 8.08C18.3757 8.08 18.0378 7.73974 18.0378 7.32V5.8ZM15.4733 14.7152C18.1419 15.5843 20.3971 17.4162 21.8054 19.8587C21.9405 20.0938 21.9407 20.3837 21.8059 20.619C21.6712 20.8543 21.4219 20.9993 21.1521 20.9993L2.84809 20.9991C2.57833 20.9991 2.32909 20.8541 2.19432 20.6188C2.05955 20.3835 2.05975 20.0936 2.19486 19.8585C3.60312 17.4161 5.85832 15.5843 8.5268 14.7152C6.4349 13.4623 5.16891 11.1777 5.20846 8.72709C5.24802 6.27644 6.58707 4.03455 8.71831 2.85079C10.8495 1.66702 13.4469 1.72247 15.5264 2.99611C14.5828 3.46487 14.0843 4.52658 14.3234 5.55844C14.5625 6.5903 15.4761 7.32021 16.5284 7.32C16.5299 8.56184 17.5172 9.57451 18.7502 9.59892C18.5118 11.7262 17.2995 13.619 15.4733 14.7152Z" fill="#3F8CFF"/>
</svg>
